{"title":"Eternal.Sunshine.of.the.Spotless.Mind.2004.720p.BRRip.XviD.AC3-P","uid":6561140,"size":2812262964,"categoryP":"video","categoryS":"hd___movies","magnet":"?xt=urn:btih:40071318e73ff40ac23dbaecfe9b72dccf686726&amp;dn=Eternal.Sunshine.of.the.Spotless.Mind.2004.720p.BRRip.XviD.AC3-P&amp;tr=udp%3A%2F%2Ftracker.openbittorrent.com%3A80&amp;tr=udp%3A%2F%2Fopen.demonii.com%3A1337&amp;tr=udp%3A%2F%2Ftracker.coppersurfer.tk%3A6969&amp;tr=udp%3A%2F%2Fexodus.desync.com%3A6969","seeders":1,"leechers":0,"uploader":"PsychoLogic","files":14,"time":1311478760,"description":"One of my favorite movies :)\n\nRelease Information:\n\nEternal.Sunshine.of.the.Spotless.Mind.2004.720p.BRRip.XviD.AC3-PsychoLogic\n\nSource                           : Eternal.Sunshine.of.the.Spotless.Mind.2004.720p.BluRay.DTS.x264.CtrlHD\nSubtitles                        : Arabic, Danish, Dutch, English, French, Greek, Polish, Portuguese, Romanian, Vietnamese\nLanguage                         : English\nEncoded By                       : PsychoLogic\nSample Included                  : Yes\n\nMovie Information                : http://www.imdb.com/title/tt0338013/\nGenre                            : Drama | Romance | Sci-Fi \nDirector                         : Michel Gondry\nCast                             : Jim Carrey, Kate Winslet and Tom Wilkinson\nPlot                             : A couple undergo a procedure to erase each other from their memories when their relationship turns sour, but it is only through the process of loss that they discover what they had to begin with. \n\nGeneral\nFormat                           : AVI\nFormat/Info                      : Audio Video Interleave\nFormat profile                   : OpenDML\nFile size                        : 2.60 GiB\nDuration                         : 1h 47mn\nOverall bit rate                 : 3 459 Kbps\nWriting application              : VirtualDubMod 1.5.10.2 (build 2540/release)\nWriting library                  : VirtualDubMod build 2540/release\n\nVideo\nID                               : 0\nFormat                           : MPEG-4 Visual\nFormat profile                   : Advanced Simple@L5\nFormat settings, BVOP            : 2\nFormat settings, QPel            : No\nFormat settings, GMC             : No warppoints\nFormat settings, Matrix          : Default (H.263)\nCodec ID                         : XVID\nCodec ID/Hint                    : XviD\nDuration                         : 1h 47mn\nBit rate                         : 3 000 Kbps\nWidth                            : 1 280 pixels\nHeight                           : 688 pixels\nDisplay aspect ratio             : 1.860\nFrame rate                       : 23.976 fps\nColor space                      : YUV\nChroma subsampling               : 4:2:0\nBit depth                        : 8 bits\nScan type                        : Progressive\nCompression mode                 : Lossy\nBits/(Pixel*Frame)               : 0.142\nStream size                      : 2.26 GiB (87%)\nWriting library                  : XviD 1.2.1 (UTC 2008-12-04)\n\nAudio\nID                               : 1\nFormat                           : AC-3\nFormat/Info                      : Audio Coding 3\nMode extension                   : CM (complete main)\nCodec ID                         : 2000\nDuration                         : 1h 47mn\nBit rate mode                    : Constant\nBit rate                         : 448 Kbps\nChannel(s)                       : 6 channels\nChannel positions                : Front: L C R, Side: L R, LFE\nSampling rate                    : 48.0 KHz\nBit depth                        : 16 bits\nCompression mode                 : Lossy\nStream size                      : 345 MiB (13%)\nAlignment                        : Split accross interleaves\nInterleave, duration             : 42 ms (1.00 video frame)\nInterleave, preload duration     : 500 ms\n\n","torrent":{"xt":"urn:btih:40071318e73ff40ac23dbaecfe9b72dccf686726","amp;dn":"Eternal.Sunshine.of.the.Spotless.Mind.2004.720p.BRRip.XviD.AC3-P","amp;tr":["udp%3A%2F%2Ftracker.openbittorrent.com%3A80","udp%3A%2F%2Fopen.demonii.com%3A1337","udp%3A%2F%2Ftracker.coppersurfer.tk%3A6969","udp%3A%2F%2Fexodus.desync.com%3A6969"],"infoHash":"40071318e73ff40ac23dbaecfe9b72dccf686726","infoHashBuffer":{"type":"Buffer","data":[64,7,19,24,231,63,244,10,194,61,186,236,254,155,114,220,207,104,103,38]},"announce":[],"urlList":[]}}